<svg xmlns="http://www.w3.org/2000/svg" viewBox="0 0 80.311 110.541" width="80.311" height="110.541" role="img" aria-label="LOFTZ">
  <title>LOFTZ</title>
  <path fill="#FFFFFF" d="M 40.155 62.059 C 28.078 62.059, 18.252 52.233, 18.252 40.156 C 18.252 28.079, 28.078 18.253, 40.155 18.253 C 52.233 18.253, 62.058 28.079, 62.058 40.156 C 62.058 52.233, 52.233 62.059, 40.155 62.059 M 40.155 0.000 C 18.013 0.000, 0.000 18.014, 0.000 40.156 C 0.000 62.298, 18.013 80.311, 40.155 80.311 C 62.297 80.311, 80.311 62.298, 80.311 40.156 C 80.311 18.014, 62.297 0.000, 40.155 0.000 M 40.155 92.403 C 30.496 92.403, 21.068 89.735, 12.890 84.687 L 3.362 100.120 C 14.405 106.937, 27.128 110.541, 40.155 110.541 C 53.182 110.541, 65.905 106.937, 76.948 100.120 L 67.421 84.687 C 59.243 89.735, 49.815 92.403, 40.155 92.403"></path>
</svg>